<svg width="24px" height="24px" viewBox="0 0 24 24" version="1.1" xmlns="http://www.w3.org/2000/svg">
  <g stroke="none" stroke-width="1" fill="none" fill-rule="evenodd">
    <g transform="translate(7.000000, 4.000000)"></g>
    <g>
      <circle stroke="#FFFFFF" cx="12" cy="12" r="11.5"></circle>
      <path
        d="M14.19824,15.6602 C14.19824,15.1621 14.04004,14.752 13.72363,14.4297 C13.40723,14.1016 12.87988,13.80859 12.1416,13.55078 C11.40332,13.28711 10.8291,13.04395 10.41895,12.82129 C9.05371,12.08887 8.37109,11.00488 8.37109,9.56934 C8.37109,8.59668 8.66699,7.79687 9.25879,7.16992 C9.85059,6.54297 10.65332,6.1709 11.66699,6.05371 L11.66699,4.137695 L13.07324,4.137695 L13.07324,6.07129 C14.09277,6.21777 14.88086,6.65137 15.4375,7.37207 C15.99414,8.08691 16.27246,9.01855 16.27246,10.16699 L14.14551,10.16699 C14.14551,9.42871 13.97852,8.84863 13.64453,8.42676 C13.31641,7.99902 12.86816,7.78516 12.2998,7.78516 C11.7373,7.78516 11.29785,7.9375 10.98145,8.24219 C10.66504,8.54688 10.50684,8.9834 10.50684,9.55176 C10.50684,10.06152 10.66211,10.47168 10.97266,10.78223 C11.28906,11.08691 11.82227,11.37695 12.57227,11.65234 C13.32227,11.92773 13.91113,12.18262 14.33887,12.41699 C14.7666,12.65137 15.12695,12.9209 15.41992,13.22559 C15.71289,13.52441 15.93848,13.87012 16.09668,14.2627 C16.25488,14.6553 16.33398,15.1152 16.33398,15.6426 C16.33398,16.6328 16.0293,17.4355 15.41992,18.0508 C14.81641,18.666 13.97266,19.0293 12.88867,19.1406 L12.88867,20.8545 L11.49121,20.8545 L11.49121,19.1494 C10.33105,19.0205 9.4375,18.6045 8.81055,17.9014 C8.18945,17.1982 7.878906,16.2666 7.878906,15.1064 L10.01465,15.1064 C10.01465,15.8447 10.19922,16.416 10.56836,16.8203 C10.94336,17.2246 11.4707,17.4268 12.15039,17.4268 C12.81836,17.4268 13.3252,17.2656 13.6709,16.9434 C14.02246,16.6211 14.19824,16.1934 14.19824,15.6602 Z"
        id="Path" fill="#FFFFFF" fill-rule="nonzero"></path>
    </g>
  </g>
</svg>
